<svg width="29" height="29" viewBox="0 0 29 29" fill="none" xmlns="http://www.w3.org/2000/svg">
<path d="M28.9983 14.5H24.3215C24.3215 11.7867 23.2225 9.33102 21.4453 7.5536L24.7518 4.24713C27.3755 6.8707 28.9983 10.4957 28.9983 14.5Z" fill="#F6BB42" style="fill:#F6BB42;fill:color(display-p3 0.9647 0.7333 0.2588);fill-opacity:1;"/>
<path d="M24.3215 14.5H28.9983C28.9983 18.4992 27.3801 22.1242 24.7518 24.7478L21.4453 21.4455C23.2225 19.6686 24.3215 17.2129 24.3215 14.5Z" fill="#8CC152" style="fill:#8CC152;fill:color(display-p3 0.5490 0.7569 0.3216);fill-opacity:1;"/>
<path d="M24.7515 24.7478V24.7529C22.1278 27.3765 18.508 29 14.5 29V24.3226C17.2125 24.3226 19.6678 23.2229 21.445 21.446L24.7515 24.7478Z" fill="#37BC9B" style="fill:#37BC9B;fill:color(display-p3 0.2157 0.7373 0.6078);fill-opacity:1;"/>
<path d="M24.7515 4.2471L21.445 7.55357C19.6678 5.77662 17.2125 4.67742 14.5 4.67742V0C18.508 0 22.1278 1.62307 24.7515 4.2471Z" fill="#E9573F" style="fill:#E9573F;fill:color(display-p3 0.9137 0.3412 0.2471);fill-opacity:1;"/>
<path d="M24.3233 14.5H19.6512H19.6465C19.6465 13.0781 19.0713 11.7918 18.1406 10.861L21.4466 7.55402C23.2243 9.33097 24.3233 11.7866 24.3233 14.5Z" fill="#FFCE54" style="fill:#FFCE54;fill:color(display-p3 1.0000 0.8078 0.3294);fill-opacity:1;"/>
<path d="M18.1385 18.1385L21.4446 21.4454C19.6678 23.2228 17.2125 24.3225 14.5 24.3225V19.6451C15.9217 19.6451 17.2079 19.0698 18.1385 18.1385Z" fill="#48CFAD" style="fill:#48CFAD;fill:color(display-p3 0.2824 0.8118 0.6784);fill-opacity:1;"/>
<path d="M14.4976 24.3226V29C10.4943 29 6.86977 27.3765 4.24609 24.7529L7.55258 21.446C9.32976 23.2229 11.7897 24.3226 14.4976 24.3226Z" fill="#4A89DC" style="fill:#4A89DC;fill:color(display-p3 0.2902 0.5373 0.8627);fill-opacity:1;"/>
<path d="M14.4958 19.6452V24.3226C11.7879 24.3226 9.32796 23.2229 7.55078 21.446L10.8568 18.139C11.7879 19.0698 13.0787 19.6452 14.4958 19.6452Z" fill="#5D9CEC" style="fill:#5D9CEC;fill:color(display-p3 0.3647 0.6118 0.9255);fill-opacity:1;"/>
<path d="M14.4953 4.67737V9.35479C13.0783 9.35479 11.7922 9.92965 10.8615 10.8609H10.8568L7.55078 7.55398C9.32749 5.77656 11.7875 4.67737 14.4953 4.67737Z" fill="#ED5565" style="fill:#ED5565;fill:color(display-p3 0.9294 0.3333 0.3961);fill-opacity:1;"/>
<path d="M7.553 21.446L4.24652 24.7529C1.62284 22.1289 0 18.5039 0 14.5H4.67678C4.67678 17.2129 5.77583 19.6686 7.553 21.446Z" fill="#967ADC" style="fill:#967ADC;fill:color(display-p3 0.5882 0.4784 0.8627);fill-opacity:1;"/>
<path d="M19.6508 14.5H24.3229C24.3229 17.2129 23.2238 19.6686 21.4466 21.446L18.1406 18.139C19.0708 17.2082 19.6461 15.9168 19.6461 14.5H19.6508Z" fill="#A0D468" style="fill:#A0D468;fill:color(display-p3 0.6275 0.8314 0.4078);fill-opacity:1;"/>
<path d="M7.55591 7.55353L10.8619 10.8605C9.93171 11.7917 9.35647 13.078 9.35647 14.5H4.67969C4.67969 11.7866 5.77873 9.33095 7.55591 7.55353Z" fill="#EC87C0" style="fill:#EC87C0;fill:color(display-p3 0.9255 0.5294 0.7529);fill-opacity:1;"/>
<path d="M10.8624 18.1386L7.55638 21.4455C5.77873 19.6686 4.67969 17.2129 4.67969 14.5H9.35647C9.35647 15.9168 9.93171 17.2082 10.8624 18.1386Z" fill="#AC92EC" style="fill:#AC92EC;fill:color(display-p3 0.6745 0.5725 0.9255);fill-opacity:1;"/>
<path d="M4.24652 4.24713L7.553 7.5536C5.77583 9.33102 4.67678 11.7867 4.67678 14.5H0C0 10.4957 1.62284 6.8707 4.24652 4.24713Z" fill="#D770AD" style="fill:#D770AD;fill:color(display-p3 0.8431 0.4392 0.6784);fill-opacity:1;"/>
<path d="M21.445 7.55352L18.139 10.8605C17.2079 9.92965 15.9217 9.35479 14.5 9.35479V4.67737C17.2125 4.67737 19.6678 5.77656 21.445 7.55352Z" fill="#FC6E51" style="fill:#FC6E51;fill:color(display-p3 0.9882 0.4314 0.3176);fill-opacity:1;"/>
<path d="M14.4976 0V4.67742C11.7897 4.67742 9.32976 5.77662 7.55258 7.55357L4.24609 4.2471C6.86977 1.62307 10.4943 0 14.4976 0Z" fill="#DA4453" style="fill:#DA4453;fill:color(display-p3 0.8549 0.2667 0.3255);fill-opacity:1;"/>
</svg>
